<?xml version="1.0" encoding="UTF-8" standalone="no"?>
<svg width="160px" height="160px" viewBox="0 0 160 160" version="1.1" xmlns="http://www.w3.org/2000/svg" xmlns:xlink="http://www.w3.org/1999/xlink">
    <!-- Generator: Sketch 46.1 (44463) - http://www.bohemiancoding.com/sketch -->
    <title>logo-icon</title>
    <desc>Created with Sketch.</desc>
    <defs></defs>
    <g id="Page-1" stroke="none" stroke-width="1" fill="none" fill-rule="evenodd">
        <g id="home-01" transform="translate(-880.000000, -420.000000)" fill="#FFFFFF">
            <g id="logo-icon" transform="translate(880.000000, 420.000000)">
                <path d="M83.3598504,0.0818472068 C82.9478066,0.0649133019 82.5357628,0.0649133019 82.1265412,0.0479793971 C81.4153423,0.0310454922 80.71261,0 79.9985889,0 C79.676856,0 79.3635899,0.0169339049 79.0475015,0.0169339049 C78.7850352,0.0254008573 78.5253911,0.0112892699 78.2685693,0.0169339049 C77.9948142,0.0112892699 77.7182368,0.0112892699 77.461415,0.0112892699 C76.451061,0.0479793971 75.545129,0.0874918417 74.7746635,0.138293556 C74.3089976,0.174983683 73.8405094,0.220140763 73.3720212,0.262475525 C73.0926217,0.285054065 72.8132221,0.330211145 72.5281781,0.358434319 C71.9355123,0.412058351 71.348491,0.479793971 70.7558252,0.544707273 C70.0361597,0.62655448 69.3193163,0.716868639 68.6052952,0.821294385 C67.9872295,0.908786227 67.3663415,1.0019227 66.7539202,1.10634845 C66.0822324,1.21641883 65.4077223,1.33777848 64.7416789,1.46478277 C64.0812799,1.59178706 63.4237031,1.73572525 62.7661263,1.87966344 C62.1621717,2.01231236 61.5553948,2.1477836 60.9514402,2.29736643 C60.2289524,2.47517243 59.5064646,2.66144538 58.7924435,2.8590076 C58.4932884,2.94367713 58.1941333,3.00294579 57.8978004,3.09043764 C57.7200007,3.14688399 57.5365565,3.20050802 57.3531124,3.25130973 C57.0680684,3.33880157 56.7802021,3.4234711 56.4923359,3.51096294 C56.3004251,3.57023161 56.1113365,3.63232259 55.9166035,3.69159126 C55.5751151,3.80166164 55.2279823,3.91173202 54.8836717,4.0218024 C54.7651386,4.06131485 54.6494276,4.10082729 54.5280722,4.14316205 C54.3022948,4.21654231 54.0793396,4.30967878 53.8563844,4.39152599 C52.8432082,4.73867104 51.844143,5.11403927 50.8535445,5.49505212 C50.4443229,5.66156886 50.0379236,5.80832936 49.628702,5.98613537 C48.5506147,6.42641689 47.4866386,6.90056623 46.4311291,7.38600483 C46.1545517,7.51300912 45.8695077,7.62872414 45.5957526,7.76137306 C44.2721324,8.39357217 42.9739121,9.05681678 41.6954474,9.75675151 C41.4245145,9.90351202 41.1648704,10.0587395 40.9024042,10.2139669 C39.9118057,10.7643189 38.9381405,11.3372493 37.9814086,11.921469 C37.8318311,12.0117832 37.6766091,12.099275 37.5270316,12.1924115 C37.1290988,12.4351308 36.7509216,12.7117179 36.3586333,12.9629042 C35.8393452,13.3015823 35.3200571,13.6430827 34.8092357,13.9902277 C34.2645477,14.3599513 33.7057485,14.7014517 33.1695271,15.0739976 C26.4413596,19.8606481 20.4356799,25.8016264 15.541954,32.572366 C15.5221985,32.5949445 15.502443,32.6203454 15.4883319,32.6429239 C15.0395992,33.2553668 14.6360221,33.8847436 14.2098672,34.5000088 C13.9502231,34.875377 13.6877569,35.2507453 13.430935,35.6317581 C12.990669,36.2921804 12.5645141,36.963892 12.1440037,37.6440705 C11.7517154,38.2649803 11.3763604,38.8943571 10.9981832,39.5293786 C10.8175613,39.8426558 10.6143616,40.1446438 10.4337396,40.4607433 C10.399873,40.5256566 10.3631842,40.5933922 10.3236731,40.6583056 C10.1204734,41.0223845 9.91727374,41.3921081 9.71689627,41.756187 C9.70560739,41.7759433 9.6914963,41.8041664 9.68020743,41.826745 C9.66327413,41.8549682 9.64916304,41.888836 9.63222973,41.9142368 C9.55038541,42.0638197 9.47418553,42.2077578 9.39798564,42.351696 C9.3443635,42.4448325 9.29920802,42.5323244 9.24840809,42.6254608 C8.96054187,43.1729904 8.69525338,43.728987 8.42149824,44.2793389 C8.2098319,44.7055088 7.9896989,45.1232118 7.78932143,45.5409148 C7.4224331,46.3029405 7.08658917,47.0734332 6.74510081,47.8411035 C6.42054575,48.5805507 6.11010178,49.3228202 5.80530224,50.0792013 C5.51743602,50.7904253 5.22956979,51.5016493 4.96145909,52.2241626 C4.72439278,52.8620063 4.50990422,53.5139617 4.28977122,54.15745 C4.11479371,54.6711118 3.93699399,55.1734843 3.77330535,55.6899684 C3.55035013,56.3899032 3.34715044,57.0954825 3.14677297,57.8010619 C3.00848429,58.2752112 2.87019561,58.7380713 2.74319581,59.2178653 C2.54281834,59.9573124 2.35937417,60.7052266 2.18439666,61.4503184 C2.0799746,61.8962446 1.97555254,62.344993 1.87677491,62.7852746 C1.7017974,63.5727011 1.5437532,64.3601277 1.39699787,65.1616659 C1.32079798,65.562435 1.24742032,65.971671 1.17968709,66.3724401 C1.03857619,67.216313 0.900287513,68.0601859 0.781754361,68.9209928 C0.767643272,69.047997 0.74224331,69.1637121 0.725310003,69.287894 L0.680154516,69.6378614 C0.63499903,69.9793618 0.589843543,70.3152176 0.550332493,70.6623626 C0.536221403,70.7667884 0.530576967,70.8768588 0.519288096,70.9869291 C0.448732648,71.6163059 0.39228829,72.2485051 0.333021713,72.8835265 C0.273755137,73.5495934 0.222955215,74.2184827 0.180621946,74.8901942 C0.149577549,75.3756328 0.112888716,75.8610714 0.093133191,76.3493323 C0.0423332687,77.5516396 0.00282221791,78.7483022 0.00282221791,79.9449648 C0.00282221791,79.9675433 0,79.9844773 0,79.9985888 C0,80.1058369 0.00564443582,80.2159073 0.00564443582,80.320333 C0.0112888716,81.2008961 0.0225777433,82.1012154 0.0564443582,82.987423 C0.062088794,83.2019192 0.0846665373,83.4220599 0.093133191,83.6422007 C0.110066499,84.0232136 0.132644242,84.3985818 0.158044203,84.7852393 C0.191910818,85.4795294 0.211666343,86.1681748 0.270932919,86.8681096 C0.807154322,93.6275599 2.28317429,100.367254 4.61997072,106.816249 C4.74979274,107.174684 4.87961477,107.544407 5.01508123,107.914131 C5.09410333,108.128627 5.1844143,108.331834 5.26625862,108.549152 C13.3603796,129.722178 30.1779761,146.560124 51.3276771,154.691221 L51.3192105,154.696865 C53.6418958,155.74959 56.4895137,156.627331 59.5036424,157.338555 C66.0483658,159.07428 72.9119997,160 79.9985889,160 L79.9985889,159.983066 C85.4454695,159.966132 87.9120879,157.251063 88.1943097,154.784357 C88.4793537,152.320474 85.6712469,149.966661 84.7709594,147.951527 C83.8734941,145.93357 84.5226042,140.099839 84.5226042,134.720502 C84.5226042,129.329876 84.4718043,101.448202 84.5226042,95.4677109 C84.5395375,93.43282 84.5508264,91.0028047 84.5621153,88.4881198 C87.3899776,89.165476 90.3843508,90.0827292 93.3730796,91.299148 C103.211331,95.3237727 105.742861,95.6934963 107.760746,95.6934963 C109.77581,95.6934963 116.168134,92.8881128 119.202018,91.5418673 C122.227435,90.1927996 128.281093,87.9603464 122.896301,87.9970366 C117.511509,88.036549 104.62244,87.2801679 91.2394828,85.2847895 C88.8913975,84.9376444 86.6646676,84.6949251 84.5790486,84.5368753 C84.5931596,80.9525321 84.6129152,77.5403503 84.6439596,75.2091161 C84.649604,74.8676157 84.6608929,74.5317599 84.675004,74.2015487 C84.7173372,73.8374698 84.7483816,73.439523 84.7596705,73.0274647 C84.8330482,72.13279 84.9459369,71.3114957 85.0729367,70.5748708 C86.0861129,66.7139405 89.1453971,66.914325 89.1453971,66.914325 L89.1425749,66.9030358 C95.3881432,66.9453705 101.930044,65.7007285 107.272503,64.6592934 C113.520893,63.4456968 105.581994,62.1276746 100.922512,61.6055459 C96.2573863,61.0749502 85.6712469,58.0889383 82.3043409,56.59311 C78.9402572,55.1001041 76.101106,53.8272389 72.4378671,53.8272389 C68.7774505,53.8272389 66.6043427,55.1001041 66.8357646,59.2856009 C67.0530753,63.47392 73.9251759,64.8286324 73.9251759,64.8286324 C73.9251759,64.8286324 74.2073977,75.7171332 74.3936641,84.364714 C70.2054927,84.5594539 67.4256081,85.075938 66.5196762,85.3751036 C63.8329247,86.2726006 66.0455435,86.382671 69.8498933,86.4927414 C70.9364472,86.5266092 72.5112448,86.6028117 74.4416418,86.7975516 C74.5037306,89.8823446 74.5432417,92.4534759 74.5432417,93.7856097 C74.5432417,98.9448061 74.7351525,127.537704 74.7887746,136.84853 C74.8423968,146.159355 69.7454712,146.941137 66.0709435,146.825422 C65.4303,146.808488 64.7191011,146.720996 63.9881467,146.588347 C63.9317023,146.571413 63.8696135,146.55448 63.810347,146.546013 C63.0793925,146.373851 62.359727,146.181934 61.6400614,145.975904 C61.363484,145.899702 61.0812622,145.829144 60.8018627,145.73883 C60.158397,145.558201 59.5092869,145.360639 58.8658212,145.148965 C58.4961106,145.027606 58.1320445,144.903424 57.7651562,144.77642 C57.192246,144.58168 56.6221579,144.389762 56.0577144,144.175266 C55.5299596,143.980526 55.0191382,143.771675 54.4998501,143.562823 C54.0990951,143.401951 53.695518,143.249546 53.2975852,143.083029 C52.2815868,142.659681 51.2825217,142.199644 50.2975676,141.731139 C42.5759794,138.00568 35.6756566,132.869062 29.8957543,126.674075 C29.6643325,126.431356 29.4272662,126.182992 29.2043109,125.928983 C28.6003563,125.265739 28.0161572,124.588383 27.443247,123.905382 C27.262625,123.685241 27.0848253,123.470745 26.9042033,123.250604 C17.2860847,111.458962 11.5118269,96.3990757 11.5118269,79.9985888 C11.5118269,42.17389 42.1752245,11.5094107 79.9985889,11.5094107 C88.1886653,11.5094107 96.0400755,12.9544372 103.321398,15.5876594 C103.473797,15.6441058 103.631842,15.7033744 103.784241,15.7598208 C116.046778,20.3009296 126.644207,28.2598649 134.450461,38.4766541 C136.005503,40.5313013 137.526679,42.7637544 138.985765,45.2107036 C139.01681,45.26715 139.047854,45.320774 139.078899,45.3715757 C139.671564,46.3622092 140.216252,47.3669542 140.744007,48.3745215 C140.955674,48.7894022 141.170162,49.1958159 141.373362,49.6106966 C141.731783,50.3275652 142.067627,51.0444339 142.395005,51.7697695 C146.29531,60.3806601 148.488173,69.9285601 148.488173,79.9985888 C148.488173,95.0697642 144.525779,130.058034 98.1454501,152.712776 C98.1454501,152.712776 158.035736,144.471609 160,79.9985888 C160,36.9441358 125.983808,1.84579563 83.3598504,0.0818472068 M50.6870337,102.004198 C49.6484575,102.043711 46.0473074,101.967508 40.3718272,102.131202 C34.6991692,102.314653 28.9108003,103.514138 24.5391847,104.60073 C20.1703914,105.681678 18.5504383,107.46256 20.7066128,107.358134 C22.8599651,107.248064 25.7160496,107.132349 35.4724569,108.39957 C45.2232198,109.672435 49.318258,113.846642 50.7209003,115.940802 C52.1235426,118.034961 50.6842115,120.961705 53.9890286,120.922192 C57.2938458,120.879857 59.5826645,117.445097 62.7435486,115.867422 C65.9100771,114.292568 66.0850546,112.661269 65.0690561,110.332857 C64.0530577,108.001623 63.1668813,106.311055 62.1734606,103.449225 C61.1772176,100.593039 61.8404389,93.0743857 61.6033726,83.8087174 C61.363484,74.5317599 63.0370592,61.8031081 63.5196585,57.9337108 C63.9966133,54.0699582 62.8282151,51.5947858 60.4265077,51.3351326 C56.1141587,50.8609832 53.5261849,55.6194105 52.0783871,60.6008008 C50.6305893,65.5793689 51.8808318,71.2465823 52.1037871,76.4057787 C52.3267423,81.564975 52.2082091,93.2183239 52.2928757,96.8224233 C52.37472,100.418056 51.7256099,101.973153 50.6870337,102.004198 M113.930115,69.7309979 C108.827545,69.5108571 100.640291,71.5259918 98.0071614,72.3698647 C95.3712098,73.208093 90.0428624,76.1799933 94.5301889,75.1752483 C99.0146932,74.1620363 112.022296,73.9418955 118.25093,77.4980156 C124.476743,81.0569579 126.596229,77.5798628 127.942427,75.5619058 C129.288625,73.5439488 128.676203,72.6464518 127.778738,71.5824381 C126.881273,70.5184244 126.198296,69.1467781 125.512497,67.0018169 C124.821054,64.8568556 125.213342,59.2517331 126.096696,54.7586037 C126.977228,50.2767635 128.78627,50.3332099 131.532288,48.7668237 C134.281128,47.1947928 133.442929,44.671641 131.81451,41.9763278 C130.194557,39.2866593 129.009225,37.8303434 126.652673,36.9921152 C124.298943,36.1538869 122.554813,37.6694713 119.029863,39.1765889 C115.510557,40.6808841 100.248002,39.9640155 81.7540084,40.4099416 C63.2571922,40.8558678 37.8995643,40.1277099 29.7151324,39.7382301 C22.7273208,39.4023743 27.4658247,41.6828068 38.9127405,42.351696 C48.5534369,42.9133372 53.7858289,43.7346316 43.2081562,44.0309749 C36.5590108,44.2257148 28.6342229,43.8842144 35.8845007,44.9312942 C43.0134232,45.9614401 43.8092886,46.4299448 62.3484381,48.7442451 C80.8875875,51.0585454 115.442824,50.1130691 115.442824,50.1130691 C114.322403,55.2666208 116.2274,62.2236334 116.5068,64.6875165 C116.786199,67.1570443 116.004445,69.9567833 113.930115,69.7309979" id="Fill-1"></path>
            </g>
        </g>
    </g>
</svg>